<?xml version="1.0" encoding="utf-8"?>
<svg xmlns="http://www.w3.org/2000/svg" viewBox="187.8 187.7 124.4 124.6" width="124.4px" height="124.6px"><g id="object-2"><g transform="matrix(1, 0, 0, 1, -22.176003, 0.151993)" id="object-0"><path d="M 293.176 246.148 L 293.176 233.848 L 284.776 233.848 L 284.776 216.748 L 271.676 216.748 L 271.676 196.548 C 269.876 196.348 268.076 196.248 266.176 196.248 C 241.876 196.248 222.176 215.948 222.176 240.348 L 209.976 261.048 L 222.176 264.948 L 222.176 270.248 C 222.176 278.048 228.576 284.448 236.376 284.448 L 244.076 284.448 L 244.076 312.148 L 281.776 312.148 L 281.776 281.648 C 296.976 275.948 307.876 262.248 309.976 246.148 L 293.176 246.148 Z" fill="#f6f8ff" data-original="#ffdfb3" style="stroke-width: 1;"/><path d="M 293.176 246.148 L 293.176 233.848 L 284.776 233.848 L 284.776 216.748 L 271.676 216.748 L 271.676 208.848 C 266.176 206.648 259.776 207.948 255.676 212.248 C 248.876 210.748 242.176 215.048 240.676 221.848 C 240.276 223.648 240.276 225.548 240.676 227.348 C 236.676 228.848 234.176 232.648 234.376 236.948 C 234.776 242.148 239.076 246.248 244.376 246.148 L 284.876 246.148 C 286.176 246.148 287.176 247.148 287.176 248.448 C 287.176 249.148 286.876 249.848 286.276 250.348 L 278.376 256.348 C 277.076 257.348 276.776 259.248 277.776 260.548 C 278.776 261.848 280.576 262.148 281.876 261.248 L 289.776 255.748 C 293.176 253.348 295.676 250.048 297.076 246.148 L 293.176 246.148 Z" fill="#7df9ff" data-original="#000000" style="stroke-width: 1;"/><path d="M 259.476 246.148 L 259.476 241.748 C 259.476 236.448 255.176 232.148 249.876 232.148 L 247.976 232.148 C 246.976 232.148 246.176 232.948 246.176 233.948 C 246.176 234.948 246.976 235.748 247.976 235.748 L 249.876 235.748 C 253.276 235.748 255.976 238.448 255.976 241.848 L 255.976 246.248 L 259.476 246.248 L 259.476 246.148 Z M 261.576 222.948 L 265.276 222.948 C 266.276 222.948 267.076 222.148 267.076 221.148 C 267.076 220.148 266.276 219.348 265.276 219.348 L 261.576 219.348 C 259.276 219.348 257.476 217.448 257.476 215.248 L 257.476 210.648 L 255.676 212.148 C 255.076 212.048 254.476 211.948 253.876 211.948 L 253.876 215.248 C 253.876 219.548 257.376 222.948 261.576 222.948 M 284.776 240.548 L 275.676 240.548 C 272.976 240.548 270.876 238.348 270.876 235.748 L 270.876 234.048 C 270.876 233.348 270.276 232.748 269.576 232.748 L 264.576 232.748 C 263.576 232.748 262.776 231.948 262.776 230.948 C 262.776 229.948 263.576 229.148 264.576 229.148 L 269.576 229.148 C 272.276 229.148 274.376 231.348 274.376 233.948 L 274.376 235.648 C 274.376 236.348 274.976 236.948 275.676 236.948 L 284.776 236.948 C 285.776 236.948 286.576 237.748 286.576 238.748 C 286.576 239.748 285.776 240.548 284.776 240.548" fill="#7df9ff" data-original="#000000" style="stroke-width: 1;"/><path d="M 280.176 195.448 L 292.476 195.448 L 292.476 207.748 L 280.176 207.748 L 280.176 195.448 Z" fill="#ff66c4" data-original="#ffdf40" style="stroke-width: 1;"/><path d="M 292.476 215.348 L 303.576 215.348 L 303.576 226.448 L 292.476 226.448 L 292.476 215.348 Z" fill="#b26dff" data-original="#804080" style="stroke-width: 1;"/><path d="M 319.976 198.348 L 334.376 198.348 L 334.376 212.748 L 319.976 212.748 L 319.976 198.348 Z" fill="#ceff1a" data-original="#6cd9d9" style="stroke-width: 1;"/><path d="M 309.976 221.848 L 326.576 221.848 L 326.576 238.448 L 309.976 238.448 L 309.976 221.848 Z" fill="#7df9ff" data-original="#000000" style="stroke-width: 1;"/><path d="M 299.476 187.548 L 313.476 187.548 L 313.476 201.548 L 299.476 201.548 L 299.476 187.548 Z" fill="#ffd166" data-original="#ffbe40" style="stroke-width: 1;"/></g><g transform="matrix(1.733321, 0, 0, 1.733321, -170.607056, -171.783768)" id="object-1"><path d="M 248.946 226.98 C 247.232 225.312 244.506 225.312 242.792 226.98 L 226.385 243.07 C 225.814 243.624 224.906 243.624 224.334 243.07 C 223.768 242.52 223.768 241.609 224.334 241.059 L 240.742 224.968 C 243.597 222.19 248.143 222.19 250.996 224.968 C 252.606 226.535 253.371 228.777 253.048 231.002 C 255.3 230.682 257.572 231.425 259.2 233.013 L 259.285 233.099 C 262.118 235.852 262.118 240.401 259.285 243.156 L 244.446 257.706 C 244.257 257.889 244.257 258.192 244.446 258.376 L 247.493 261.366 C 248.059 261.916 248.059 262.827 247.493 263.377 C 246.922 263.931 246.014 263.931 245.443 263.377 L 242.395 260.39 C 241.072 259.104 241.072 256.981 242.395 255.696 L 257.235 241.142 C 258.932 239.489 258.932 236.76 257.235 235.108 L 257.149 235.025 C 255.44 233.36 252.714 233.358 251.001 235.02 L 238.777 247.009 L 238.773 247.012 L 238.607 247.178 C 238.035 247.733 237.125 247.733 236.554 247.178 C 235.988 246.627 235.988 245.717 236.554 245.166 L 248.951 233.008 C 250.645 231.353 250.641 228.63 248.946 226.98 Z" style="stroke-width: 1;"/><path d="M 246.895 231.002 C 247.461 230.452 247.461 229.542 246.895 228.991 C 246.324 228.435 245.414 228.435 244.843 228.991 L 232.708 240.891 C 229.877 243.645 229.877 248.194 232.708 250.948 C 235.563 253.725 240.11 253.725 242.963 250.948 L 255.099 239.047 C 255.665 238.497 255.665 237.587 255.099 237.036 C 254.528 236.481 253.617 236.481 253.046 237.036 L 240.912 248.937 C 239.199 250.604 236.472 250.604 234.759 248.937 C 233.062 247.283 233.062 244.555 234.759 242.903 L 246.895 231.002 Z" style="stroke-width: 1;"/></g></g></svg>